<svg xmlns="http://www.w3.org/2000/svg">
  <symbol id="icon-menu" viewBox="0 0 20 20">
    <path d="M3 5h14M3 10h14M3 15h14" stroke="currentColor" stroke-width="2" stroke-linecap="round" />
  </symbol>
  <symbol id="icon-close" viewBox="0 0 20 20">
    <path d="M4 4l12 12M16 4L4 16" stroke="currentColor" stroke-width="2" stroke-linecap="round" />
  </symbol>
  <symbol id="icon-arrow-left" viewBox="0 0 16 16">
    <path d="M10 4 6 8l4 4" fill="none" stroke="currentColor" stroke-width="1.7" stroke-linecap="round" stroke-linejoin="round" />
  </symbol>
  <symbol id="icon-arrow-right" viewBox="0 0 16 16">
    <path d="m6 4 4 4-4 4" fill="none" stroke="currentColor" stroke-width="1.7" stroke-linecap="round" stroke-linejoin="round" />
  </symbol>
  <symbol id="icon-phone" viewBox="0 0 18 18">
    <path d="M5.1 2.5 7 2.1c.4-.1.8.1 1 .5l.9 2.1c.1.4.1.8-.2 1L7.6 6.8a8.8 8.8 0 0 0 3.6 3.6l1.1-1.1c.3-.3.7-.4 1-.2l2.1.9c.4.2.6.6.5 1l-.4 1.9c-.1.6-.6 1-1.2 1A11.3 11.3 0 0 1 4 3.7c0-.6.4-1.1 1.1-1.2Z" fill="none" stroke="currentColor" stroke-width="1.4" stroke-linecap="round" stroke-linejoin="round" />
  </symbol>
  <symbol id="icon-location" viewBox="0 0 18 18">
    <path d="M14 7.5c0 4-5 8-5 8s-5-4-5-8a5 5 0 1 1 10 0Z" fill="none" stroke="currentColor" stroke-width="1.4" stroke-linecap="round" stroke-linejoin="round" />
    <circle cx="9" cy="7.5" r="1.7" fill="none" stroke="currentColor" stroke-width="1.4" />
  </symbol>
  <symbol id="icon-facebook" viewBox="0 0 18 18">
    <circle cx="9" cy="9" r="8" fill="currentColor" />
    <path d="M10.4 9.6h1.8l.3-2.1h-2.1V6.2c0-.6.2-1 1.1-1h1.1V3.3c-.5-.1-1.1-.1-1.6-.1-1.7 0-2.9 1-2.9 2.8v1.5H6.2v2.1h1.9v5.2h2.3V9.6Z" fill="#fff" />
  </symbol>
  <symbol id="icon-instagram" viewBox="0 0 18 18">
    <rect x="3" y="3" width="12" height="12" rx="3" fill="none" stroke="currentColor" stroke-width="1.6" />
    <circle cx="9" cy="9" r="2.6" fill="none" stroke="currentColor" stroke-width="1.5" />
    <circle cx="12.6" cy="5.5" r=".8" fill="currentColor" />
  </symbol>
  <symbol id="icon-x" viewBox="0 0 18 18">
    <path d="M4 4l10 10M14 4 4 14" stroke="currentColor" stroke-width="1.8" stroke-linecap="round" />
  </symbol>
</svg>
