<svg xmlns="http://www.w3.org/2000/svg" width="190" height="76" viewBox="0 0 190 76" fill="none">
  <text x="0" y="58" font-family="Georgia, 'Times New Roman', serif" font-size="58" letter-spacing="-5" fill="#2f3830">flõra</text>
  <g transform="translate(68 0)">
    <path d="M13 25 C5 20, 3 12, 10 7 C18 11, 19 19, 13 25Z" fill="#F6A69E"/>
    <path d="M20 25 C16 17, 19 9, 27 8 C31 15, 27 23, 20 25Z" fill="#E67E7E"/>
    <path d="M17 28 C12 23, 12 14, 18 11 C24 16, 24 24, 17 28Z" fill="#FBD4CC"/>
    <path d="M18 31 C10 34, 5 41, 4 51 C14 48, 20 41, 18 31Z" fill="#6F8A75"/>
    <path d="M22 30 C31 31, 39 36, 43 45 C33 45, 24 40, 22 30Z" fill="#475F4B"/>
    <path d="M18 29 C18 39, 17 48, 13 59" stroke="#475F4B" stroke-width="2" stroke-linecap="round"/>
  </g>
</svg>